<?xml version="1.0" encoding="utf-8"?>
<!-- Generator: Adobe Illustrator 21.1.0, SVG Export Plug-In . SVG Version: 6.00 Build 0)  -->
<svg version="1.1" id="Layer_1" xmlns="http://www.w3.org/2000/svg" xmlns:xlink="http://www.w3.org/1999/xlink" x="0px" y="0px"
	 viewBox="0 0 203.5 55.2" style="enable-background:new 0 0 203.5 55.2;" xml:space="preserve">
<style type="text/css">
	.st0{fill:#046996;}
</style>
<title>HeartFlow_logo_blue</title>
<desc>Created with Sketch.</desc>
<g id="Page-1">
	<g id="HeartFlow-Logo-Blue" transform="translate(-82.000000, -126.000000)">
		<g id="Group" transform="translate(82.000000, 126.000000)">
			<g id="HeartFlow_logo_blue">
				<path id="Combined-Shape" class="st0" d="M40.7,36.2c-5.4,4.3-13.3,8.1-23,10.5l-0.1,0.2c3.7-0.2,6.8-0.8,10.3-1.5
					c7.9-1.7,16.9-5.2,21.6-11.9c3.5-5,3.8-13.3-1.4-18.1c-6.9-6.3-25.6-6-26.7,15.5c0.2-0.8,0.6-2,0.9-2.9c0.3-0.8,0.6-1.7,0.9-2.5
					c0.8-2,1.8-3.9,3.2-5.5c1.8-1.9,4.2-3.9,6.7-4.7c2.3-0.8,5.3-1,7.6-0.4c3.3,0.8,6.3,2.8,7.4,6c1.6,4.5-0.7,9.7-6.1,14.5
					c1.2-1.1,2.9-2.9,4.2-5.3c2.9-5.1,1.7-11.9-5-14.1c-4.3-1.4-10.9,0.2-13.5,4.8c0,0,3.2-4.1,9.5-4.1c4.7,0,7.3,2.5,8.3,5.5
					c1.2,3.7,1.4,8.6-5.4,14.6C40.1,36.6,40.3,36.4,40.7,36.2z M19.9,42.8c-7.8-24.4,5.6-34.5,17.5-32.2C28.4,2.8,3.7,14,19.9,43
					C20,42.9,19.9,42.9,19.9,42.8z"/>
				<polyline id="Fill-6" class="st0" points="63,23.2 63,30.8 71,30.8 71,23.2 74.5,23.2 74.5,42.3 71,42.3 71,33.9 63,33.9 
					63,42.3 59.5,42.3 59.5,23.2 63,23.2 				"/>
				<path id="Fill-7" class="st0" d="M85.9,33.9c0-1.3-0.5-3.4-2.8-3.4c-2.1,0-3,2-3.2,3.4H85.9L85.9,33.9z M79.8,36.4
					c0.1,2.5,2,3.6,4.2,3.6c1.6,0,2.8-0.2,3.8-0.6l0.5,2.4c-1.2,0.5-2.8,0.9-4.8,0.9c-4.5,0-7.1-2.8-7.1-7c0-3.8,2.3-7.4,6.7-7.4
					c4.5,0,5.9,3.7,5.9,6.7c0,0.7-0.1,1.2-0.1,1.5H79.8L79.8,36.4z"/>
				<path id="Fill-8" class="st0" d="M99.7,35.5c-2.5-0.1-4.8,0.5-4.8,2.6c0,1.4,0.9,2,2,2c1.4,0,2.4-0.9,2.7-1.9
					c0.1-0.3,0.1-0.5,0.1-0.8V35.5L99.7,35.5z M103.1,39c0,1.2,0.1,2.5,0.2,3.3h-3.1l-0.2-1.5h-0.1c-0.8,1.1-2.3,1.8-4.1,1.8
					c-2.8,0-4.3-2-4.3-4.1c0-3.5,3.1-5.2,8.1-5.2V33c0-0.9-0.4-2.4-2.8-2.4c-1.4,0-2.8,0.4-3.7,1l-0.7-2.3c1-0.6,2.8-1.2,5-1.2
					c4.4,0,5.7,2.8,5.7,5.8V39L103.1,39z"/>
				<path id="Fill-9" class="st0" d="M106.6,32.9c0-1.9,0-3.2-0.1-4.5h3l0.1,2.6h0.1c0.7-2,2.3-2.9,3.7-2.9c0.3,0,0.5,0,0.8,0.1v3.3
					c-0.3-0.1-0.6-0.1-1-0.1c-1.7,0-2.8,1.1-3.1,2.6c-0.1,0.3-0.1,0.7-0.1,1.1v7.1h-3.5V32.9"/>
				<path id="Fill-10" class="st0" d="M120.9,25.2v3.5h3.3v2.6h-3.3v6.1c0,1.7,0.5,2.6,1.8,2.6c0.6,0,1-0.1,1.4-0.2l0.1,2.7
					c-0.5,0.2-1.4,0.4-2.5,0.4c-1.3,0-2.3-0.5-3-1.2c-0.7-0.8-1.1-2-1.1-3.9v-6.5h-2v-2.6h2v-2.6L120.9,25.2"/>
				<polyline id="Fill-11" class="st0" points="128.5,23.2 138.7,23.2 138.7,25.2 131,25.2 131,31.6 138.1,31.6 138.1,33.6 
					131,33.6 131,42.3 128.5,42.3 128.5,23.2 				"/>
				<polygon id="Fill-12" class="st0" points="140.5,42.3 143,42.3 143,23.2 140.5,23.2 				"/>
				<path id="Fill-13" class="st0" d="M149,35.4c0,3,1.7,5.3,4.1,5.3c2.4,0,4.1-2.2,4.1-5.3c0-2.3-1.2-5.3-4.1-5.3
					C150.3,30,149,32.8,149,35.4L149,35.4z M159.8,35.2c0,5.1-3.5,7.3-6.8,7.3c-3.7,0-6.5-2.7-6.5-7.1c0-4.6,3-7.3,6.8-7.3
					C157.2,28.2,159.8,31,159.8,35.2L159.8,35.2z"/>
				<path id="Fill-14" class="st0" d="M163,29.2l1.8,7c0.4,1.5,0.8,2.9,1,4.4h0.1c0.3-1.4,0.8-2.9,1.2-4.4l2.2-7h2.1l2.1,6.9
					c0.5,1.6,0.9,3.1,1.2,4.5h0.1c0.2-1.4,0.6-2.8,1-4.5l1.9-6.9h2.5l-4.4,13.7h-2.3l-2.1-6.6c-0.5-1.5-0.9-2.9-1.2-4.5h-0.1
					c-0.3,1.6-0.8,3.1-1.2,4.5l-2.2,6.5h-2.3l-4.1-13.7H163"/>
				<path id="Fill-15" class="st0" d="M183.6,29.5h0.3c0.3,0,0.6-0.1,0.6-0.4c0-0.2-0.2-0.4-0.5-0.4c-0.1,0-0.3,0-0.3,0V29.5
					L183.6,29.5L183.6,29.5z M183.6,30.9h-0.6v-2.4c0.2,0,0.5-0.1,0.9-0.1c0.5,0,0.7,0.1,0.8,0.2c0.1,0.1,0.3,0.3,0.3,0.5
					c0,0.3-0.2,0.5-0.5,0.6v0c0.2,0.1,0.4,0.3,0.4,0.6c0.1,0.4,0.1,0.5,0.2,0.6h-0.6c-0.1-0.1-0.1-0.3-0.2-0.6
					c0-0.3-0.2-0.4-0.5-0.4h-0.3V30.9L183.6,30.9L183.6,30.9z M182.1,29.6c0,1.1,0.8,2,1.9,2c1.1,0,1.9-0.9,1.9-1.9
					c0-1.1-0.8-2-1.9-2C182.9,27.7,182.1,28.5,182.1,29.6L182.1,29.6L182.1,29.6z M186.5,29.6c0,1.4-1.1,2.5-2.5,2.5
					c-1.4,0-2.5-1.1-2.5-2.5c0-1.4,1.1-2.4,2.5-2.4C185.4,27.2,186.5,28.2,186.5,29.6L186.5,29.6L186.5,29.6z"/>
			</g>
		</g>
	</g>
</g>
</svg>
