<svg xmlns="http://www.w3.org/2000/svg" viewBox="0 0 143.67 130.83"><defs><style>.a{fill:#fff;}.b{fill:none;stroke:#fff;stroke-miterlimit:10;stroke-width:2px;}</style></defs><title>logo</title><path class="a" d="M19.1,120.81v2.69H7.92V108.83h3.66v12Z"/><path class="a" d="M26,113.37a5.94,5.94,0,0,1,4,1.37,4.71,4.71,0,0,1,1.62,3.81A4.62,4.62,0,0,1,30,122.34,6,6,0,0,1,26,123.68a5.71,5.71,0,0,1-4-1.43,4.81,4.81,0,0,1-1.57-3.73,4.73,4.73,0,0,1,1.6-3.74A5.84,5.84,0,0,1,26,113.37Zm0,8.47c1.5,0,2.24-1.13,2.24-3.38s-.74-3.23-2.24-3.23a2,2,0,0,0-1.67.85,4.23,4.23,0,0,0-.6,2.44C23.77,120.73,24.53,121.84,26,121.84Z"/><path class="a" d="M37,113.58V115a4.11,4.11,0,0,1,3.22-1.62,3.59,3.59,0,0,1,2.58,1,3.76,3.76,0,0,1,1,2.83v6.31H40.67v-6c0-1.32-.51-2-1.54-2-.74,0-1.46.55-2.17,1.64v6.4H33.84v-9.92Z"/><path class="a" d="M56.47,108.83V123.5H53.36v-.8a4.42,4.42,0,0,1-6.07-.49A5.32,5.32,0,0,1,46,118.52a5.25,5.25,0,0,1,1.34-3.71,4.54,4.54,0,0,1,3.46-1.44,5.78,5.78,0,0,1,2.59.63v-5.17Zm-3.11,12V116a3.13,3.13,0,0,0-1.75-.58,2.24,2.24,0,0,0-1.83.82,3.6,3.6,0,0,0-.65,2.3,3.4,3.4,0,0,0,.65,2.19,2.08,2.08,0,0,0,1.73.82A2.75,2.75,0,0,0,53.36,120.78Z"/><path class="a" d="M64.28,113.37a5.93,5.93,0,0,1,4,1.37,4.71,4.71,0,0,1,1.62,3.81,4.62,4.62,0,0,1-1.65,3.79,6,6,0,0,1-3.92,1.34,5.74,5.74,0,0,1-4-1.43,4.81,4.81,0,0,1-1.57-3.73,4.73,4.73,0,0,1,1.6-3.74A5.84,5.84,0,0,1,64.28,113.37Zm0,8.47c1.49,0,2.23-1.13,2.23-3.38s-.74-3.23-2.23-3.23a2,2,0,0,0-1.68.85,4.23,4.23,0,0,0-.6,2.44C62,120.73,62.76,121.84,64.28,121.84Z"/><path class="a" d="M75.19,113.58V115a4.11,4.11,0,0,1,3.22-1.62,3.59,3.59,0,0,1,2.58,1,3.72,3.72,0,0,1,1,2.83v6.31H78.9v-6c0-1.32-.51-2-1.54-2-.73,0-1.46.55-2.17,1.64v6.4H72.07v-9.92Z"/><path class="a" d="M100.4,120.5v3H90.71v-.41Q92,121.46,93.76,119a26,26,0,0,0,2.17-3.55,5.15,5.15,0,0,0,.45-2,2.09,2.09,0,0,0-.57-1.48,1.81,1.81,0,0,0-1.38-.62,5.39,5.39,0,0,0-3.53,1.82V110a7.58,7.58,0,0,1,4.1-1.4,4.93,4.93,0,0,1,3.41,1.11,3.9,3.9,0,0,1,1.24,3.06q0,2.66-4,7.69Z"/><path class="a" d="M107.49,108.64a4.13,4.13,0,0,1,3.64,2,9.86,9.86,0,0,1,1.3,5.44,10.4,10.4,0,0,1-1.27,5.59,4,4,0,0,1-3.63,2,4.21,4.21,0,0,1-3.72-2,12.1,12.1,0,0,1,0-11.07A4.21,4.21,0,0,1,107.49,108.64Zm0,12.29c.59,0,1-.35,1.28-1.06a13.16,13.16,0,0,0,.4-4,10.38,10.38,0,0,0-.4-3.46,1.35,1.35,0,0,0-1.3-1,1.38,1.38,0,0,0-1.31,1,12,12,0,0,0-.41,3.93,10.75,10.75,0,0,0,.41,3.55A1.4,1.4,0,0,0,107.49,120.93Z"/><path class="a" d="M121,108.83V123.5h-3.24V108.83Z"/><path class="a" d="M128.21,123.68l3.38-5.5a3.89,3.89,0,0,1-1,.14,3.64,3.64,0,0,1-2.82-1.35,4.77,4.77,0,0,1-1.18-3.26A5,5,0,0,1,128,110.1a4.64,4.64,0,0,1,3.47-1.46,4.57,4.57,0,0,1,3.46,1.46,5.1,5.1,0,0,1,1.38,3.65,11.18,11.18,0,0,1-1.93,5.75l-2.59,4.18Zm3.2-7.86a1.42,1.42,0,0,0,1.17-.62,2.55,2.55,0,0,0,.47-1.57,2.73,2.73,0,0,0-.44-1.64,1.43,1.43,0,0,0-1.2-.6,1.45,1.45,0,0,0-1.2.63,2.51,2.51,0,0,0-.48,1.59,2.54,2.54,0,0,0,.47,1.6A1.44,1.44,0,0,0,131.41,115.82Z"/><path class="a" d="M25.06,82.8,35.59,70.66h7.09V103.4H34.52V83L25.68,93.23H24.45L15.61,83V103.4H7.45V70.66h7.08Z"/><path class="a" d="M60.76,70.66V103.4H52.6V70.66Z"/><path class="a" d="M70.66,70.66H85.09q8.37,0,13.23,4.58a15.54,15.54,0,0,1,4.87,11.85q0,7.62-4.94,12T84.18,103.4H70.66Zm8.15,6V97.4h5.32c3.46,0,6.1-.94,7.93-2.84a10.42,10.42,0,0,0,2.74-7.51A10.29,10.29,0,0,0,92,79.44q-2.77-2.77-8-2.78Z"/><path class="a" d="M136.55,97.4v6h-25V70.66h8.15V97.4Z"/><path class="a" d="M57.27,52.44a7.83,7.83,0,1,1-7.83-7.83A7.83,7.83,0,0,1,57.27,52.44Z"/><line class="b" x1="49.44" y1="52.44" x2="90.93" y2="34.55"/><path class="a" d="M101,34.55a10.06,10.06,0,1,1-10.06-10A10.06,10.06,0,0,1,101,34.55Z"/><path class="a" d="M30.05,38.32a5.72,5.72,0,1,1-5.72-5.71A5.72,5.72,0,0,1,30.05,38.32Z"/><line class="b" x1="21.58" y1="36.6" x2="49.93" y2="52.55"/><path class="a" d="M125.05,47.32a5.72,5.72,0,1,1-5.72-5.71A5.72,5.72,0,0,1,125.05,47.32Z"/><line class="b" x1="90.44" y1="34.44" x2="119.33" y2="47.32"/><line class="b" x1="90.44" y1="33.44" x2="110.05" y2="10.04"/><path class="a" d="M113.48,10a3.44,3.44,0,1,1-3.43-3.43A3.44,3.44,0,0,1,113.48,10Z"/></svg>